<svg xmlns="http://www.w3.org/2000/svg" width="57.24" height="61" viewBox="0 0 57.24 61">
  <defs>
    <style>
      .cls-1 {
        fill: #076d76;
        fill-rule: evenodd;
      }
    </style>
  </defs>
  <path id="antiiotics" class="cls-1" d="M1304.35,6915.06a0.96,0.96,0,1,1,.96-0.96A0.969,0.969,0,0,1,1304.35,6915.06Zm6,27.25a0.96,0.96,0,0,1-.96-0.96v-3.84h-3.84a0.96,0.96,0,0,1,0-1.92h3.84v-3.84a0.96,0.96,0,0,1,1.92,0v3.84h3.85a0.96,0.96,0,0,1,0,1.92h-3.85v3.84A0.96,0.96,0,0,1,1310.35,6942.31ZM1324.7,6959a9.417,9.417,0,0,1-8.05-4.57l-0.07-.12h-19.44a5.77,5.77,0,0,1-5.77-5.76V6925.3a5.813,5.813,0,0,1,1.15-3.45l6.06-8.07v-3.66l-0.16-.06a3.353,3.353,0,0,1-2.24-3.16v-5.53a3.367,3.367,0,0,1,3.36-3.36h21.62a3.369,3.369,0,0,1,3.37,3.36v5.53a3.353,3.353,0,0,1-2.24,3.16l-0.16.06v3.66l6.05,8.07a5.813,5.813,0,0,1,1.15,3.45v10.84l5.24-3.02a9.368,9.368,0,0,1,9.38,16.22l-14.57,8.4a9.307,9.307,0,0,1-4.68,1.26h0Zm-3.73-15.81a7.444,7.444,0,1,0,7.45,12.89l6.73-3.88-7.45-12.9Zm-27.68,5.36a3.85,3.85,0,0,0,3.85,3.84h18.59l-0.08-.3a9.313,9.313,0,0,1-.06-4.69l0.08-.3h-22.38v1.45Zm45.97-14.77a7.488,7.488,0,0,0-3.72,1l-6.18,3.56,7.45,12.9,6.17-3.56A7.449,7.449,0,0,0,1339.26,6933.78Zm-45.97,11.41h23.15l0.07-.12a9.392,9.392,0,0,1,3.5-3.55l7.4-4.27v-10.19h-34.12v18.13Zm7.21-31.09a0.975,0.975,0,0,1-.19.57l-6.25,8.33a3.826,3.826,0,0,0-.74,1.88l-0.03.26h34.13l-0.04-.26a3.734,3.734,0,0,0-.74-1.88l-5.96-7.94h-11.53a0.96,0.96,0,1,1,0-1.92h11.05v-2.88h-19.7v3.84Zm-0.96-14.17a1.44,1.44,0,0,0-1.44,1.44v5.53a1.447,1.447,0,0,0,1.44,1.44h21.62a1.449,1.449,0,0,0,1.45-1.44v-5.53a1.449,1.449,0,0,0-1.45-1.44h-21.62Z" transform="translate(-1291.38 -6898)"/>
</svg>
