<svg xmlns="http://www.w3.org/2000/svg" width="64.593" height="61" viewBox="0 0 64.593 61">
  <defs>
    <style>
      .cls-1 {
        fill: #076d76;
        fill-rule: evenodd;
      }
    </style>
  </defs>
  <path id="cold" class="cls-1" d="M825,6906.99a11.914,11.914,0,0,0-3.15-.43,11.546,11.546,0,0,0-2.873.36,11.71,11.71,0,0,0-17.2-7.15,13.462,13.462,0,0,0-24.223,10.33,9.823,9.823,0,0,0-5.846,3,10.032,10.032,0,0,0-2.748,6.91,14.135,14.135,0,0,0,1.908,7.09,0.952,0.952,0,0,0,.82.47,0.919,0.919,0,0,0,.476-0.13,0.953,0.953,0,0,0,.342-1.3,12.169,12.169,0,0,1-1.651-6.13,8.023,8.023,0,0,1,7.679-8.09,1.519,1.519,0,0,0,.213-0.01,0.942,0.942,0,0,0,.9-1.2,11.57,11.57,0,0,1,21.038-9.15,0.95,0.95,0,0,0,.615.44,0.969,0.969,0,0,0,.74-0.15,9.819,9.819,0,0,1,15.292,6.43,0.974,0.974,0,0,0,.453.66,0.93,0.93,0,0,0,.8.07,9.932,9.932,0,0,1,5.909-.19A0.95,0.95,0,0,0,825,6906.99Zm8.557,11.27a11.562,11.562,0,0,0-2.52-7.25,0.946,0.946,0,1,0-1.486,1.17,9.718,9.718,0,0,1,2.111,6.08c0,0.1,0,.2,0,0.3a0.883,0.883,0,0,0,0,.13v1.32a12.238,12.238,0,0,1-12.231,12.22H783.083a12.239,12.239,0,0,1-6.3-1.75,0.946,0.946,0,1,0-.978,1.62,14.11,14.11,0,0,0,7.281,2.02h36.344a14.134,14.134,0,0,0,14.126-14.11v-1.42c0-.03,0-0.05,0-0.08C833.552,6918.43,833.553,6918.34,833.553,6918.26Zm-51.121,17.93a4.3,4.3,0,1,0,4.3,4.3A4.308,4.308,0,0,0,782.432,6936.19Zm0,6.71a2.41,2.41,0,1,1,2.41-2.41A2.412,2.412,0,0,1,782.432,6942.9Zm10.3,3.57a4.305,4.305,0,1,0,4.305,4.3A4.308,4.308,0,0,0,792.728,6946.47Zm0,6.71a2.405,2.405,0,1,1,2.41-2.41A2.412,2.412,0,0,1,792.728,6953.18Zm8.527-16.99a4.3,4.3,0,1,0,4.3,4.3A4.308,4.308,0,0,0,801.255,6936.19Zm0,6.71a2.41,2.41,0,1,1,2.41-2.41A2.412,2.412,0,0,1,801.255,6942.9Zm10.3,3.57a4.305,4.305,0,1,0,4.3,4.3A4.308,4.308,0,0,0,811.551,6946.47Zm0,6.71a2.405,2.405,0,1,1,2.409-2.41A2.412,2.412,0,0,1,811.551,6953.18Zm8.527-16.99a4.3,4.3,0,1,0,4.305,4.3A4.309,4.309,0,0,0,820.078,6936.19Zm0,6.71a2.41,2.41,0,1,1,2.41-2.41A2.412,2.412,0,0,1,820.078,6942.9Z" transform="translate(-768.969 -6894.06)"/>
</svg>
