<svg xmlns="http://www.w3.org/2000/svg" width="60.344" height="59.44" viewBox="0 0 60.344 59.44">
  <defs>
    <style>
      .cls-1 {
        fill: #076d76;
        fill-rule: evenodd;
      }
    </style>
  </defs>
  <path id="new_coronavirus_" data-name="new coronavirus " class="cls-1" d="M381.432,6922.22a5.9,5.9,0,0,0-2.083-4.12,5.353,5.353,0,0,0-4.03-1.25,5.766,5.766,0,0,0-4.61,3.38l-1.81.16-1.787-.5a0.447,0.447,0,0,1-.3-0.3,16.913,16.913,0,0,0-2.2-4.34l0.633-1.7,2-2.17a4,4,0,0,0,2.947-1.41,4.128,4.128,0,0,0-.13-5.51,4.1,4.1,0,0,0-5.972.04,4.08,4.08,0,0,0-1.084,2.96l-2,2.16-1.672.78a16.731,16.731,0,0,0-8.223-2.29l-1.093-1.75-0.386-1.92a5.216,5.216,0,0,0,1.844-5.14,5.65,5.65,0,0,0-6.62-4.19,5.579,5.579,0,0,0-3.66,2.4,5.114,5.114,0,0,0-.758,3.93,5.405,5.405,0,0,0,3.493,3.94l0.426,2.12-0.339,2.07a16.561,16.561,0,0,0-4.241,2.73l-1.254-.23L337.1,6911a4.1,4.1,0,1,0-3.248,4.79l1.187,0.9,0.532,1.09a0.172,0.172,0,0,1,0,.15,16.7,16.7,0,0,0-1.53,7.02c0,0.45.019,0.91,0.056,1.36a0.178,0.178,0,0,1-.074.17l-2,1.43-2.288.72a5.393,5.393,0,0,0-4.97-.85,0.449,0.449,0,0,1-.1.04l-0.028.01a0.908,0.908,0,0,0,.614,1.71l0.042-.02c0.015,0,.029-0.01.043-0.01a3.531,3.531,0,0,1,3.57.8,0.917,0.917,0,0,0,.624.25,0.846,0.846,0,0,0,.272-0.04l2.9-.92a1.138,1.138,0,0,0,.254-0.12l2.12-1.52a2,2,0,0,0,.829-1.79c-0.032-.41-0.049-0.82-0.049-1.22a14.9,14.9,0,0,1,1.364-6.26,2,2,0,0,0-.02-1.71l-0.628-1.28a0.931,0.931,0,0,0-.268-0.33l-1.706-1.29a0.9,0.9,0,0,0-.822-0.14,2.283,2.283,0,1,1,1.575-2.36,0.935,0.935,0,0,0,.358.65l1.889,1.42a0.813,0.813,0,0,0,.387.17l1.9,0.34a0.886,0.886,0,0,0,.775-0.23,15.14,15.14,0,0,1,4.506-2.89,0.905,0.905,0,0,0,.55-0.69l0.446-2.72a0.915,0.915,0,0,0-.006-0.33l-0.564-2.8a0.886,0.886,0,0,0-.663-0.7,3.665,3.665,0,0,1-2.729-2.74,3.33,3.33,0,0,1,.5-2.55,3.92,3.92,0,0,1,7,1.17,3.446,3.446,0,0,1-1.566,3.61,0.9,0.9,0,0,0-.4.94l0.532,2.65a0.861,0.861,0,0,0,.121.3l1.309,2.09a1.355,1.355,0,0,0,1.165.65h0a14.921,14.921,0,0,1,7.73,2.15,1.357,1.357,0,0,0,1.282.07l2.049-.95a0.861,0.861,0,0,0,.284-0.21l2.393-2.59a0.9,0.9,0,0,0,.23-0.75,2.277,2.277,0,1,1,2.081,1.93,0.881,0.881,0,0,0-.733.28l-2.392,2.6a0.774,0.774,0,0,0-.185.3l-0.777,2.09a1.358,1.358,0,0,0,.178,1.28,14.974,14.974,0,0,1,2.09,4.05,2.243,2.243,0,0,0,1.528,1.46l1.946,0.55a0.885,0.885,0,0,0,.324.03l2.527-.22a0.9,0.9,0,0,0,.777-0.61,4,4,0,0,1,3.3-2.73,3.579,3.579,0,0,1,2.686.84,4.1,4.1,0,0,1,1.439,2.87,4.418,4.418,0,0,1-.4,2.2,0.908,0.908,0,1,0,1.644.77,6.283,6.283,0,0,0,.559-3.11h0Zm-4.561,4.49a3.533,3.533,0,0,1-.78.17,3.7,3.7,0,0,1-3.736-2.22,0.921,0.921,0,0,0-.9-0.52l-2.372.21a0.865,0.865,0,0,0-.314.09l-1.791.87a2.243,2.243,0,0,0-1.252,1.73,15.021,15.021,0,0,1-.85,3.29,2.268,2.268,0,0,0,.132,1.92l0.637,1.14a0.954,0.954,0,0,0,.287.31l1.774,1.19a0.906,0.906,0,0,0,.829.1,2.286,2.286,0,1,1-1.443,2.44,0.893,0.893,0,0,0-.392-0.62l-1.966-1.32a0.938,0.938,0,0,0-.395-0.15l-1.238-.15a2.328,2.328,0,0,0-1.892.63,15.22,15.22,0,0,1-3.307,2.4,2.323,2.323,0,0,0-1.216,1.9l-0.157,2.51a0.951,0.951,0,0,0,.026.28l0.778,3.09a0.916,0.916,0,0,0,.634.65,3.08,3.08,0,0,1,2.145,2.2,3.031,3.031,0,0,1-.363,2.35,3.057,3.057,0,1,1-4.74-3.79,0.9,0.9,0,0,0,.244-0.87l-0.782-3.11a0.9,0.9,0,0,0-.109-0.25l-1.207-1.95a2.662,2.662,0,0,0-2.288-1.26h0a14.972,14.972,0,0,1-2.916-.28,2.656,2.656,0,0,0-2.463.78l-1.6,1.68a1.064,1.064,0,0,0-.159.23l-1.785,3.71a0.92,0.92,0,0,0,0,.8,2.27,2.27,0,0,1,.01,2,2.245,2.245,0,0,1-1.373,1.19,2.29,2.29,0,0,1-1.809-.19,2.316,2.316,0,0,1-.989-2.85,2.264,2.264,0,0,1,1.6-1.37,0.894,0.894,0,0,0,.611-0.49l1.8-3.73a0.989,0.989,0,0,0,.08-0.27l0.353-2.51a2.254,2.254,0,0,0-.8-2.05,15.1,15.1,0,0,1-3.409-3.91,2.26,2.26,0,0,0-1.892-1.07l-2.5-.03a0.9,0.9,0,0,0-.28.05l-2.736.86a0.913,0.913,0,0,0-.629.76,3.553,3.553,0,0,1-6.911.71,3.516,3.516,0,0,1,.023-2.25,0.906,0.906,0,0,0-1.714-.59,5.343,5.343,0,0,0-.032,3.41,5.4,5.4,0,0,0,5.114,3.7,5.223,5.223,0,0,0,1.6-.25,5.357,5.357,0,0,0,3.622-3.93l2.072-.65,2.355,0.02a0.425,0.425,0,0,1,.36.2,16.849,16.849,0,0,0,3.817,4.38,0.425,0.425,0,0,1,.147.39l-0.332,2.37-1.562,3.24a4.1,4.1,0,0,0-.651,7.44,4.1,4.1,0,0,0,5.868-4.96l1.546-3.21,1.5-1.58a0.84,0.84,0,0,1,.8-0.25,17.04,17.04,0,0,0,3.278.32h0a0.86,0.86,0,0,1,.739.4l1.132,1.82,0.63,2.5a4.874,4.874,0,0,0,3.79,7.96,4.575,4.575,0,0,0,1.036-.11,4.877,4.877,0,0,0,.767-9.28l-0.624-2.48,0.149-2.37a0.507,0.507,0,0,1,.259-0.41,16.85,16.85,0,0,0,3.7-2.68,0.524,0.524,0,0,1,.423-0.15l1.022,0.13,1.473,0.98a4.1,4.1,0,1,0,2.978-4.96l-1.234-.83-0.532-.95a0.448,0.448,0,0,1-.023-0.38,16.834,16.834,0,0,0,.955-3.69,0.437,0.437,0,0,1,.244-0.35l1.641-.79,1.612-.14a5.48,5.48,0,0,0,5.254,2.68,5.831,5.831,0,0,0,1.165-.25,0.91,0.91,0,0,0-.566-1.73h0Zm-23.095-14.13a12.385,12.385,0,0,0-2.912-.34,12.686,12.686,0,1,0,6.778,1.96,0.906,0.906,0,0,0-1.25.28,0.916,0.916,0,0,0,.281,1.26,10.866,10.866,0,1,1-5.809-1.69,11.018,11.018,0,0,1,2.5.29,0.9,0.9,0,1,0,.414-1.76h0Zm-22.738-8.18a4.265,4.265,0,1,0-4.262-4.27A4.267,4.267,0,0,0,331.038,6904.4Zm0-6.72a2.455,2.455,0,1,1-2.449,2.45A2.453,2.453,0,0,1,331.038,6897.68Zm-0.917,43.62a3.125,3.125,0,1,0,3.122,3.13A3.127,3.127,0,0,0,330.121,6941.3Zm0,4.44a1.31,1.31,0,1,1,1.31-1.31A1.313,1.313,0,0,1,330.121,6945.74Zm40.695-1.84a4.175,4.175,0,1,0,4.17,4.17A4.175,4.175,0,0,0,370.816,6943.9Zm0,6.54a2.365,2.365,0,1,1,2.358-2.37A2.365,2.365,0,0,1,370.816,6950.44ZM351.2,6921.69a3.95,3.95,0,1,0-3.95,3.96,3.953,3.953,0,0,0,3.95-3.96h0Zm-3.95,2.14a2.14,2.14,0,1,1,2.138-2.14A2.141,2.141,0,0,1,347.247,6923.83Zm2.444,10.31a2.98,2.98,0,1,0-2.978-2.98A2.984,2.984,0,0,0,349.691,6934.14Zm0-4.15a1.17,1.17,0,1,1-1.166,1.17A1.172,1.172,0,0,1,349.691,6929.99Zm3.859-5.04a2.646,2.646,0,1,0,2.646-2.65,2.652,2.652,0,0,0-2.646,2.65h0Zm2.646-.84a0.84,0.84,0,0,1,.833.84,0.834,0.834,0,0,1-1.667,0A0.84,0.84,0,0,1,356.2,6924.11Z" transform="translate(-321.094 -6895.03)"/>
</svg>
