<svg xmlns="http://www.w3.org/2000/svg" width="59.844" height="59.97" viewBox="0 0 59.844 59.97">
  <defs>
    <style>
      .cls-1 {
        fill: #076d76;
        fill-rule: evenodd;
      }
    </style>
  </defs>
  <path id="garlic" class="cls-1" d="M450.528,6939.57a1,1,0,0,0-1.366.37c-1.175,2.04-3.411,3.04-6.831,3.05-3.425-.01-5.662-1.01-6.837-3.05a12.1,12.1,0,0,1-1.112-6.86,1,1,0,0,0-2-.15,14.057,14.057,0,0,0,1.372,8.01c1.562,2.71,4.364,4.04,8.572,4.05,4.2-.01,7-1.34,8.566-4.05A1.006,1.006,0,0,0,450.528,6939.57Zm-2.168-19.05a1,1,0,1,0-1.73,1,29.294,29.294,0,0,1,3.549,10.6,0.993,0.993,0,0,0,.992.88h0.121a1.007,1.007,0,0,0,.873-1.12A30.79,30.79,0,0,0,448.36,6920.52Zm-14.085,7.44a1,1,0,0,0,1.251-.66,28.563,28.563,0,0,1,2.5-5.78,43.918,43.918,0,0,0,2.925-6.14,1,1,0,0,0-1.086-1.35,1.018,1.018,0,0,0-.78.63,42.019,42.019,0,0,1-2.79,5.86,30.687,30.687,0,0,0-2.681,6.19A1,1,0,0,0,434.275,6927.96Zm25.572-14.82c-7.121-3.8-11.2-10.6-11.49-19.15a2,2,0,0,0-1.993-1.95h-1c-0.011-.37-0.019-0.72-0.024-1.03a2,2,0,0,0-2-1.96H441.32a2,2,0,0,0-2,1.96c0,0.31-.012.66-0.024,1.03H438.3a2,2,0,0,0-1.993,1.95c-0.288,8.55-4.369,15.35-11.489,19.15-7.625,4.07-14.344,14.49-11.9,24.22,1.534,6.12,6.419,9.63,13.4,9.63a20.982,20.982,0,0,0,6.579-1,16.315,16.315,0,0,0,18.856,0,21.028,21.028,0,0,0,6.587,1c6.985,0,11.87-3.51,13.4-9.63C474.191,6927.63,467.472,6917.21,459.847,6913.14Zm-33.524,31.85c-6.08,0-10.151-2.88-11.464-8.11-1.718-6.85,1.963-17.2,10.905-21.98,7.664-4.09,12.237-11.69,12.54-20.86h0.9c0,0.09-.009.17-0.014,0.26-0.012.2-.026,0.4-0.04,0.61-0.016.23-.034,0.46-0.052,0.7s-0.037.48-.059,0.72c-0.019.22-.043,0.46-0.065,0.69-0.026.27-.05,0.53-0.08,0.81-0.019.18-.043,0.37-0.064,0.56-0.068.58-.144,1.19-0.23,1.81-0.031.22-.061,0.44-0.095,0.67-0.046.32-.1,0.64-0.151,0.96-0.04.24-.08,0.49-0.123,0.73-0.055.32-.114,0.65-0.176,0.97-0.049.26-.1,0.53-0.154,0.79-0.064.32-.13,0.64-0.2,0.97-0.061.28-.128,0.57-0.194,0.85-0.073.31-.143,0.63-0.221,0.94-0.107.43-.224,0.86-0.343,1.29-0.1.36-.2,0.72-0.307,1.08-0.117.39-.234,0.78-0.36,1.18-0.082.25-.17,0.5-0.256,0.75-0.125.37-.252,0.73-0.386,1.1-0.092.25-.188,0.49-0.284,0.74-0.145.38-.3,0.75-0.452,1.12-0.1.23-.195,0.46-0.3,0.69-0.181.4-.372,0.81-0.566,1.21-0.09.18-.176,0.37-0.269,0.55-0.295.59-.6,1.16-0.93,1.73-0.273.46-.536,0.95-0.791,1.45-0.15.29-.288,0.59-0.43,0.89-0.091.19-.185,0.38-0.273,0.57-0.184.41-.356,0.82-0.525,1.23-0.036.09-.072,0.18-0.107,0.26-0.184.47-.357,0.93-0.522,1.4-0.017.05-.033,0.1-0.05,0.15-0.167.48-.324,0.97-0.469,1.46-0.016.05-.031,0.11-0.046,0.16-0.138.47-.265,0.94-0.382,1.42-0.027.11-.052,0.22-0.078,0.33-0.1.41-.188,0.83-0.268,1.24-0.048.24-.088,0.49-0.13,0.74-0.047.27-.1,0.55-0.135,0.82-0.075.52-.134,1.03-0.18,1.55l0,0.03a18.318,18.318,0,0,0,1.844,10.71c0.05,0.08.115,0.16,0.167,0.24a0.425,0.425,0,0,0,.046.07,10.757,10.757,0,0,0,.794,1.15l0,0.01A19.43,19.43,0,0,1,426.323,6944.99Zm26.856-4.16a9.88,9.88,0,0,1-.547,1.1c-1.923,3.35-5.391,5.05-10.3,5.06-3.667-.01-6.526-0.96-8.542-2.83l0-.01a9.856,9.856,0,0,1-2.373-3.47l-0.006-.02a12.568,12.568,0,0,1-.462-1.32c-0.027-.09-0.047-0.18-0.073-0.28-0.1-.37-0.188-0.74-0.26-1.12-0.028-.15-0.049-0.3-0.073-0.45-0.052-.33-0.1-0.66-0.132-1-0.02-.2-0.036-0.4-0.05-0.61-0.019-.28-0.032-0.56-0.039-0.85-0.007-.27-0.011-0.53-0.007-0.8,0-.21.01-0.42,0.018-0.63,0.015-.34.03-0.69,0.059-1.04,0.007-.09.018-0.18,0.026-0.27a31.611,31.611,0,0,1,2.149-8.63c0.036-.09.072-0.18,0.109-0.27,0.15-.37.307-0.73,0.469-1.09,0.095-.21.195-0.42,0.295-0.62,0.122-.26.243-0.51,0.37-0.76,0.244-.48.5-0.95,0.76-1.4,0.348-.6.676-1.21,0.989-1.83,0.1-.2.193-0.41,0.29-0.61,0.2-.42.406-0.84,0.595-1.27,0.112-.25.216-0.51,0.324-0.76,0.159-.38.317-0.76,0.465-1.15,0.109-.28.212-0.56,0.315-0.84,0.132-.36.261-0.72,0.385-1.09,0.1-.29.2-0.59,0.292-0.88,0.112-.36.22-0.71,0.323-1.06,0.09-.3.179-0.6,0.264-0.9,0.1-.35.185-0.69,0.274-1.04,0.079-.3.159-0.6,0.233-0.91,0.082-.34.157-0.67,0.232-1.01,0.068-.3.139-0.6,0.2-0.9,0.074-.35.139-0.7,0.206-1.05q0.156-.81.29-1.59c0.054-.32.111-0.64,0.159-0.95s0.089-.61.133-0.91,0.083-.57.12-0.85c0.038-.3.072-0.58,0.106-0.86s0.067-.56.1-0.83,0.056-.53.082-0.79c0.028-.28.053-0.55,0.077-0.82,0.022-.24.042-0.47,0.06-0.7,0.022-.28.042-0.54,0.06-0.8,0.015-.21.03-0.42,0.042-0.62,0.017-.27.032-0.54,0.045-0.8,0.008-.16.018-0.32,0.025-0.48,0-.04,0-0.09.007-0.13v-0.01c0.033-.77.054-1.46,0.063-2.04h2.016c0.068,4.33.661,14.21,4.234,23.22l0.017,0.04a39.566,39.566,0,0,0,2.5,5.22,31.07,31.07,0,0,1,4.246,15.82c0,0.06-.006.13-0.009,0.2-0.02.4-.052,0.79-0.1,1.18-0.014.12-.032,0.25-0.049,0.37-0.046.34-.1,0.68-0.165,1.02-0.031.15-.07,0.3-0.106,0.45-0.07.31-.142,0.61-0.231,0.91-0.047.15-.105,0.3-0.156,0.44-0.1.29-.195,0.58-0.314,0.86C453.2,6940.79,453.189,6940.81,453.179,6940.83Zm16.629-3.95c-1.311,5.23-5.383,8.11-11.463,8.11a19.883,19.883,0,0,1-4.978-.59c0.015-.02.026-0.04,0.04-0.06,0.084-.1.152-0.22,0.231-0.33,0.214-.3.427-0.6,0.613-0.91,0.036-.06.081-0.11,0.116-0.17a17.148,17.148,0,0,0,1.947-8.94c0-.14-0.015-0.28-0.019-0.41-0.015-.38-0.03-0.76-0.061-1.14-0.037-.48-0.091-0.96-0.153-1.43,0-.04-0.008-0.08-0.012-0.11a34.182,34.182,0,0,0-4.237-12.39c-0.564-.97-1.076-1.97-1.547-2.99-0.028-.07-0.058-0.13-0.086-0.19-0.224-.49-0.437-0.99-0.641-1.49-0.019-.05-0.038-0.09-0.057-0.14a64.677,64.677,0,0,1-4.039-19.65h0.9c0.31,9.16,4.882,16.76,12.547,20.85C467.846,6919.68,471.527,6930.03,469.808,6936.88Zm-37.591-22.77a1.006,1.006,0,0,0-1.4-.16,26.747,26.747,0,0,1-4.105,2.72,18.648,18.648,0,0,0-4.785,3.66,1,1,0,0,0,1.452,1.37,16.772,16.772,0,0,1,4.277-3.27,28.724,28.724,0,0,0,4.418-2.92A0.993,0.993,0,0,0,432.217,6914.11ZM426.323,6941c-3.015,0-5.186-.88-6.452-2.59a1,1,0,1,0-1.611,1.18c1.664,2.26,4.377,3.4,8.063,3.4h0.26l-0.024-2Zm39.6-5.09c-0.859,3.42-3.34,5.09-7.582,5.09l-0.239-.01h-0.013a1,1,0,0,0-.008,2h0.26c6.5,0,8.767-3.59,9.522-6.6A1,1,0,0,0,465.927,6935.91Zm-7.965-19.24a1,1,0,1,0-.943,1.76h0a17.772,17.772,0,0,1,7.421,7.79,1.019,1.019,0,0,0,.832.56,1.006,1.006,0,0,0,.9-0.45,0.985,0.985,0,0,0,.064-0.99A19.717,19.717,0,0,0,457.962,6916.67Z" transform="translate(-412.406 -6889.03)"/>
</svg>
