<svg xmlns="http://www.w3.org/2000/svg" width="61.656" height="62.94" viewBox="0 0 61.656 62.94">
  <defs>
    <style>
      .cls-1 {
        fill: #076d76;
        fill-rule: evenodd;
      }
    </style>
  </defs>
  <path id="mosquito" class="cls-1" d="M281.776,6923.75a20.07,20.07,0,0,0,7.6,1.5c0.535,0,1.071-.02,1.6-0.07a20.048,20.048,0,0,0,8.877-2.92,10.76,10.76,0,0,0,5.021-9.15,0.964,0.964,0,0,0-.315-0.72,0.876,0.876,0,0,0-.725-0.21l-8.939,1.45a0.929,0.929,0,0,0-.752,1.07,0.907,0.907,0,0,0,1.029.78l7.831-1.27a8.83,8.83,0,0,1-4.067,6.44,18.217,18.217,0,0,1-16.506,1.35l-3.769-1.55H289.38a0.936,0.936,0,0,0,0-1.87H278.485l0.009-.4,12.871-2.08a0.935,0.935,0,0,0,.752-1.07,0.907,0.907,0,0,0-1.029-.79l-12.012,1.95,5.97-4.77a1.484,1.484,0,0,0,.552-1.16v-8.09l4.783-7.42a0.96,0.96,0,0,0-.247-1.3,0.877,0.877,0,0,0-1.25.25l-4.85,7.53a1.54,1.54,0,0,0-.238.82v8.01l-5.345,4.26a4.591,4.591,0,0,0-.647-1.54,3.524,3.524,0,0,0,2.107-3.26,3.458,3.458,0,0,0-3.383-3.52,3.267,3.267,0,0,0-1.581.41v-10.35a0.9,0.9,0,1,0-1.8,0v10.35a3.273,3.273,0,0,0-1.581-.41,3.458,3.458,0,0,0-3.384,3.52,3.54,3.54,0,0,0,1.988,3.21,4.566,4.566,0,0,0-.657,1.49l-5.216-4.16v-8.01a1.54,1.54,0,0,0-.238-0.82l-4.85-7.53a0.877,0.877,0,0,0-1.25-.25,0.96,0.96,0,0,0-.247,1.3l4.783,7.42v8.09a1.484,1.484,0,0,0,.552,1.16l5.97,4.77-24.766-4.01a0.876,0.876,0,0,0-.725.21,0.964,0.964,0,0,0-.315.72,10.76,10.76,0,0,0,5.021,9.15,20.312,20.312,0,0,0,8.813,2.92h0.075a0.939,0.939,0,0,0,.073-1.87,18.4,18.4,0,0,1-8.044-2.66,8.83,8.83,0,0,1-4.067-6.44l24.361,3.94,0.01,0.43h-10.74a0.936,0.936,0,0,0,0,1.87h10.711l-3.769,1.55a18.238,18.238,0,0,1-4.689,1.24,0.941,0.941,0,0,0,.105,1.87c0.036,0,.072-0.01.108-0.01a19.973,19.973,0,0,0,5.138-1.35l3.225-1.33,0.022,0.97-12.753,6.27a0.934,0.934,0,0,0-.485.61l-2.068,8.09-6.182,5.39a0.964,0.964,0,0,0-.112,1.32,0.894,0.894,0,0,0,.691.34,0.917,0.917,0,0,0,.579-0.22l6.4-5.59a0.931,0.931,0,0,0,.293-0.47l2.033-7.96,10.871-5.35-5.65,5.13a0.929,0.929,0,0,0-.309.7v13.97l-4.945,9.21a0.965,0.965,0,0,0,.347,1.28,0.879,0.879,0,0,0,.438.12,0.91,0.91,0,0,0,.788-0.48l5.06-9.43a0.979,0.979,0,0,0,.114-0.46v-13.78l5.524-5.01,0.683,20.03a3.089,3.089,0,1,0,6.178,0l0.688-20.17,5.674,5.15v13.78a0.979,0.979,0,0,0,.114.46l5.06,9.42a0.9,0.9,0,0,0,.788.49,0.879,0.879,0,0,0,.438-0.12,0.965,0.965,0,0,0,.347-1.28l-4.945-9.21v-13.97a0.926,0.926,0,0,0-.309-0.7l-5.65-5.13,10.871,5.35,2.034,7.96a0.923,0.923,0,0,0,.292.47l6.4,5.59a0.914,0.914,0,0,0,.578.22,0.894,0.894,0,0,0,.691-0.34,0.962,0.962,0,0,0-.112-1.32l-6.182-5.39-2.068-8.09a0.931,0.931,0,0,0-.485-0.61l-12.906-6.35,0.022-.95Zm-8.019-11.09h0.422a2.516,2.516,0,0,1,1.844.81,2.709,2.709,0,0,1,.733,1.93l-0.211,9.15a2.577,2.577,0,1,1-5.153,0l-0.211-9.15a2.713,2.713,0,0,1,.732-1.93A2.516,2.516,0,0,1,273.757,6912.66Zm-1.534,20.98h3.49l-0.126,3.68h-3.238Zm3.554-1.88h-3.618l-0.108-3.17a4.308,4.308,0,0,0,3.834,0Zm-3.364,7.44h3.11l-0.125,3.68h-2.859Zm4.115-31.32a1.646,1.646,0,1,1-1.581,1.64A1.61,1.61,0,0,1,276.528,6907.88Zm-4.965,0a1.646,1.646,0,1,1-1.581,1.64A1.609,1.609,0,0,1,271.563,6907.88Zm2.405,40.45a1.311,1.311,0,0,1-1.288-1.3l-0.077-2.27h2.731l-0.078,2.28a1.308,1.308,0,0,1-1.288,1.29h0Z" transform="translate(-243.219 -6893.28)"/>
</svg>
